<?xml version="1.0" encoding="UTF-8"?>
<svg xmlns="http://www.w3.org/2000/svg" width="720" height="360" viewBox="0 0 720 360">
  <style>
    .node { fill:#111827; stroke:#f472b6; stroke-width:2; rx:12; ry:12; }
    .node-text { font-family: 'Inter', sans-serif; font-size:16px; fill:#f9fafb; }
    .arrow { stroke:#f472b6; stroke-width:2; marker-end:url(#arrowhead); fill:none; }
  </style>
  <defs>
    <marker id="arrowhead" markerWidth="10" markerHeight="7" refX="10" refY="3.5" orient="auto">
      <polygon points="0 0, 10 3.5, 0 7" fill="#f472b6" />
    </marker>
  </defs>
  <rect class="node" x="40" y="40" width="160" height="60" />
  <text class="node-text" x="120" y="78" text-anchor="middle">User</text>
  <text class="node-text" x="120" y="98" text-anchor="middle">Selfie + Email</text>

  <rect class="node" x="260" y="40" width="160" height="60" />
  <text class="node-text" x="340" y="78" text-anchor="middle">Costume UI</text>

  <rect class="node" x="480" y="40" width="180" height="60" />
  <text class="node-text" x="570" y="78" text-anchor="middle">Email Capture</text>
  <text class="node-text" x="570" y="98" text-anchor="middle">&amp; Consent</text>

  <rect class="node" x="260" y="150" width="200" height="60" />
  <text class="node-text" x="360" y="188" text-anchor="middle">Generation Orchestrator</text>

  <rect class="node" x="40" y="150" width="180" height="70" />
  <text class="node-text" x="130" y="188" text-anchor="middle">Costume Catalog</text>
  <text class="node-text" x="130" y="208" text-anchor="middle">(JSON / future DB)</text>

  <rect class="node" x="40" y="260" width="200" height="60" />
  <text class="node-text" x="140" y="298" text-anchor="middle">Affiliate Links</text>
  <text class="node-text" x="140" y="318" text-anchor="middle">Amazon / AliExpress</text>

  <rect class="node" x="300" y="260" width="160" height="60" />
  <text class="node-text" x="380" y="298" text-anchor="middle">Generated Fits</text>

  <rect class="node" x="520" y="260" width="160" height="60" />
  <text class="node-text" x="600" y="298" text-anchor="middle">Share &amp; Follow</text>

  <rect class="node" x="520" y="150" width="180" height="60" />
  <text class="node-text" x="610" y="188" text-anchor="middle">Email Delivery Stub</text>

  <line class="arrow" x1="200" y1="70" x2="260" y2="70" />
  <line class="arrow" x1="420" y1="70" x2="480" y2="70" />
  <line class="arrow" x1="340" y1="100" x2="340" y2="150" />
  <line class="arrow" x1="130" y1="220" x2="260" y2="190" />
  <line class="arrow" x1="570" y1="100" x2="570" y2="150" />
  <line class="arrow" x1="360" y1="210" x2="360" y2="260" />
  <line class="arrow" x1="140" y1="220" x2="140" y2="260" />
  <line class="arrow" x1="460" y1="290" x2="520" y2="290" />
  <line class="arrow" x1="610" y1="210" x2="610" y2="260" />
</svg>
